<mxfile host="app.diagrams.net" modified="2022-11-08T09:05:37.418Z" agent="5.0 (X11; Linux x86_64) AppleWebKit/537.36 (KHTML, like Gecko) Chrome/102.0.5005.134 YaBrowser/22.7.1.828 (beta) Yowser/2.5 Safari/537.36" etag="dbZBKy9mxRVaPpsw74rU" version="20.5.1" type="github">
  <diagram id="rvXtsra5cVqKh8y62VCn" name="Страница 1">
    <mxGraphModel dx="1180" dy="716" grid="1" gridSize="10" guides="1" tooltips="1" connect="1" arrows="1" fold="1" page="1" pageScale="1" pageWidth="827" pageHeight="1169" math="0" shadow="0">
      <root>
        <mxCell id="0" />
        <mxCell id="1" parent="0" />
        <mxCell id="y0BY14GwNphT56YzDTAM-1" value="" style="rounded=1;whiteSpace=wrap;html=1;" vertex="1" parent="1">
          <mxGeometry x="190" y="100" width="120" height="60" as="geometry" />
        </mxCell>
      </root>
    </mxGraphModel>
  </diagram>
</mxfile>
